<svg height="512" viewBox="0 0 64 64" width="512" xmlns="http://www.w3.org/2000/svg"><g id="Filled_outline" data-name="Filled outline"><path d="m3 16h58a0 0 0 0 1 0 0v38a4 4 0 0 1 -4 4h-50a4 4 0 0 1 -4-4v-38a0 0 0 0 1 0 0z" fill="#9c2d20"/><path d="m7 16h50a0 0 0 0 1 0 0v14a4 4 0 0 1 -4 4h-42a4 4 0 0 1 -4-4v-14a0 0 0 0 1 0 0z" fill="#b5554e"/><path d="m17 10v6h6v-10z" fill="#66342e"/><path d="m41 6v10h6v-6z" fill="#66342e"/><path d="m23 6h18v6h-18z" fill="#ad6327"/><path d="m13 40h16v4h-16z" fill="#f9bb4b"/><path d="m13 44h4v4h-4z" fill="#b5554e"/><path d="m25 44h4v4h-4z" fill="#b5554e"/><path d="m25 51-4 3-4-3v-7h8z" fill="#d3843d"/><path d="m20 44h2v5h-2z" fill="#f4f4e6"/><path d="m17 34h8v6h-8z" fill="#d3843d"/><path d="m35 40h16v4h-16z" fill="#f9bb4b"/><path d="m35 44h4v4h-4z" fill="#b5554e"/><path d="m47 44h4v4h-4z" fill="#b5554e"/><path d="m47 51-4 3-4-3v-7h8z" fill="#d3843d"/><path d="m42 44h2v5h-2z" fill="#f4f4e6"/><path d="m39 34h8v6h-8z" fill="#d3843d"/><path d="m17 28h8v6h-8z" fill="#f9bb4b"/><path d="m15 24h12v4h-12z" fill="#d3843d"/><path d="m39 28h8v6h-8z" fill="#f9bb4b"/><path d="m37 24h12v4h-12z" fill="#d3843d"/><path d="m48 15v-5a1 1 0 0 0 -.445-.832l-6-4a1.838 1.838 0 0 0 -.555-.168h-18a1.83 1.83 0 0 0 -.555.168l-6 4a1 1 0 0 0 -.445.832v5h-14v39a5.006 5.006 0 0 0 5 5h50a5.006 5.006 0 0 0 5-5v-39zm-6-7.132 4 2.667v4.465h-4zm-18-.868h16v4h-16zm0 6h16v2h-16zm-6-2.465 4-2.667v7.132h-4zm-10 6.465h48v13a3 3 0 0 1 -3 3h-5v-4h2v-6h-14v6h2v4h-12v-4h2v-6h-14v6h2v4h-5a3 3 0 0 1 -3-3zm28 26v-2h14v2zm14 2v2h-2v-2zm-6 4v-4h2v5.5l-3 2.25-3-2.25v-5.5h2v4zm-6-4v2h-2v-2zm8-10v4h-6v-4zm-6-2v-4h6v4zm-2-6v-2h10v2zm-24 16v-2h14v2zm14 2v2h-2v-2zm-6 4v-4h2v5.5l-3 2.25-3-2.25v-5.5h2v4zm-6-4v2h-2v-2zm8-10v4h-6v-4zm-6-2v-4h6v4zm-2-6v-2h10v2zm44 27a3 3 0 0 1 -3 3h-50a3 3 0 0 1 -3-3v-37h2v13a5.006 5.006 0 0 0 5 5h5v4h-4v10h4v2.5l5 3.75 5-3.75v-2.5h4v-10h-4v-4h12v4h-4v10h4v2.5l5 3.75 5-3.75v-2.5h4v-10h-4v-4h5a5.006 5.006 0 0 0 5-5v-13h2z"/><path d="m56 53h-4v2h5a1 1 0 0 0 1-1v-6h-2z"/><path d="m8 44h-2v10a1 1 0 0 0 1 1h5v-2h-4z"/><path d="m14 53h2v2h-2z"/></g></svg>